<?xml version="1.0" encoding="UTF-8"?>
<svg id="Modal" xmlns="http://www.w3.org/2000/svg" xmlns:xlink="http://www.w3.org/1999/xlink" viewBox="0 0 1080.64 1080">
  <defs>
    <style>
      .cls-1 {
        fill: url(#Degradado_sin_nombre_3);
      }

      .cls-2 {
        opacity: .15;
      }
    </style>
    <linearGradient id="Degradado_sin_nombre_3" data-name="Degradado sin nombre 3" x1="1080.64" y1="540" x2="18.15" y2="540" gradientUnits="userSpaceOnUse">
      <stop offset="0" stop-color="#fff" stop-opacity=".5"/>
      <stop offset=".07" stop-color="#fff" stop-opacity=".45"/>
      <stop offset=".32" stop-color="#fff" stop-opacity=".26"/>
      <stop offset=".55" stop-color="#fff" stop-opacity=".12"/>
      <stop offset=".73" stop-color="#fff" stop-opacity=".03"/>
      <stop offset=".84" stop-color="#fff" stop-opacity="0"/>
    </linearGradient>
  </defs>
  <g class="cls-2">
    <path class="cls-1" d="M290.58,306.95c-59.31-11.07-112.85,48.09-115.04,107.06l.02.51c2.14,19.82,12.18-9.06,15.61-13.49,4.4-7.37,9.71-14.07,15.74-20.15,47.51-45.96,60.89-14.58,89.36-28.72,20.4-11.95,17.58-39.32-5.69-45.23ZM549.1,306.37c-48.7,10.59-93.93-23.88-141.68-24.55h-.55c-19.14-.04-38.43,6.16-54.79,16.17-8.61,5.33-17.28,11.42-24.1,18.77-8.95,9.77-5.41,13.25,7.88,9.06,53.78-21.71,88.53-6.69,141.59,6,14.19,3.43,29.12,6.13,43.67,4.23,13.34-1.59,27.49-7.79,36.18-17.64,9.38-10.8,1.98-13.41-8.2-12.04ZM202.08,543.67v.52c.52,30.98,11.97,61.43,33.6,83.79,7.1,8.03,17.59,12.72,11.53-4.13-2.68-7.26-5.41-15.09-7.18-22.81-29.86-117.51,70.77-220.93,177.41-252.01,9.31-3.63,13.6-10.87,1.39-12.44-8.25-.66-17.22.71-25.59,1.98-98.87,16.36-189.64,101.58-191.16,205.1ZM207.47,856.55c32.07-15.49,56.67-51.71,54.01-87.49-1.62-18.58-12.47-34.87-28.01-45.14-10.32-7.13-28.26-14.44-38.79-5.31-10.33,9.61-1.23,21.37,9.19,26.42,13.77,6.82,25.38,18.81,27.18,34.53,3.03,30.1-21.13,54.52-43.27,71.65-4.14,3.71-13.67,8.65-14.42,13.76l.04.15c5.27,4.67,27.74-5.51,34.07-8.58ZM328.03,219.35c-2.53-.33-5.38-.16-8.12.15-83.31,8.54-180.1,67.9-184.47,157.42v.55c-.25,18.85,3.47,39.17,11.36,53.92,1.68,2.97,4.3,7.54,8.02,7.13,2.7-.21,4.06-5.6,3.98-9.41-2.69-42.12,11.35-81.66,38.32-114.14,33.08-41.44,80.09-67.7,129.69-83.91,7.21-2.78,10.64-10.33,1.21-11.7ZM131.83,502.48c4.86,21.22,21.14,37.51,31.95,55.88,10.43,15.83,19.5,32.67,28.27,49.57,2.19,3.84,4.86,11.59,8.2,13.46l.18.05c4.7-.87.97-15.95.28-20.21-6.08-29.03-12.28-58.04-18.63-87.02-2.23-9.9-4.95-20.01-10.72-28.45-18.36-27.43-45.35-14.81-39.54,16.71ZM689.42,263.06c1.2-3.22,1.65-6.12.86-7.74-5.44-6.56-18.95,11.69-22.8,16.07-24.15,29.88-40.15,65.81-40.83,105.2v.52c.11,54.4,41.28,96.87,97.18,98.92,10.48.64,19.05-3.69,7.34-12.63-63.47-38.2-75.5-117.34-49.57-182.06,2.34-6.16,5.51-12.22,7.82-18.27ZM701.2,189.98c-71.37,34.57-141.2,122.62-141.9,204.29v.52c-.63,62.86,35.85,128.93,97.39,149.77,43.1,15.08,93.45.62,121.77-35.46,11.36-13.31,20.71-35.21-5.41-17.62-13.32,8.61-27.76,13.07-43.16,13.25-33.2.3-63.76-15.64-85.86-39.76-27.06-28.9-41.34-73.29-30.87-115.65,10.6-43.15,31.46-83.43,58.47-118.74,8.27-10.65,17.7-20.34,27.82-29.26,4.15-3.49,14.41-14.76,1.75-11.34ZM347.14,478.98c.38,1.44,3.68,2.6,9,3.28,14.61,1.41,34.07,1.43,49.73,1.31,51.35.82,100.26-27.06,127.33-70.16,8.89-14.17,24.21-42.3,7.59-55.1-22.77-9.41-41.47,38.93-53.28,53.57-25.37,38.88-61.19,53.77-106.15,57.18-7.06.81-14.45,1.86-20.81,3.38-8.53,1.98-13.91,4.43-13.45,6.43l.03.12ZM307.95,811.24c.9,5.43,2.06,9.55,3.51,10.29l.14.07c1.17.51,2.5-1.13,3.73-4.35,1.15-2.99,2.11-7.24,2.65-10.76,9.5-56.73-14.25-118.04-61.37-151.84-12.33-9.51-32.86-18.78-45.57-5.57-9.33,10.15-7.65,28.01.1,38.95,15.97,21.35,41.51,33.1,60.11,51.98,20.45,19.1,33.6,43.34,36.71,71.23ZM626.11,595.1c19.58.08,38.05-4.19,54.75-14.63,2.81-1.75,6.79-5.39,6.47-7.61-.74-5.06-5.95-3.55-9.74-3.57-7.18-.04-14.41.45-21.51-.28-24.81-2.55-46.75-10.86-63.24-30.99-14.24-17.38-25.92-35.78-31.39-57.93-3.7-15.02-16.57-25.65-29.31-25.85-13.89-.22-26.69,9.78-32.08,24.44-3.91,10.66-1.34,20.36,2.7,30.27,20.73,50.84,70.87,85.95,123.35,86.17ZM72.59,738.99c-2.44,22.81,19.15,30.85,35.73,16.57,31.32-28.77,30.46-81.51,25.85-120.67l-.07-.56c-1.27-9.89-3.68-28.28-7.53-34.42-.44-.73-.98-1.45-1.69-1.58-1.18-.11-2,2.55-2.47,7.12-.61,5.62-.53,12.93-1.09,18.94-3.24,34.01-26.22,60.89-40.91,90.72-3.72,7.43-7.1,15.61-7.83,23.87ZM452.72,419.68c18.41-13.32,34.28-31.1,42.55-52.5,1.73-4.17,3.46-12.53,1.75-13.64l-.11-.11c-3.86-1.85-10.2,6.71-14.11,10.01-28.73,29.84-71.68,33.23-109.89,41.91-54.49,12.59-111.79,50-122.69,108.32-1.95,14.26,7.47,29.03,22.08,21.96,9.23-4.64,15.55-13.19,22.13-21.35,14.53-19.37,30.6-38.49,52.6-49.53,16.94-9.05,36.05-13.55,54.03-19.59,18.29-5.99,36.04-14.11,51.66-25.48ZM607.99,725.63c12.8-5.16,19.2-18.73,29.01-27.79,19.01-17.63,47-18.26,69.71-28.86,45.66-19.2,86.24-62.19,91.5-112.71v-.49c-.35-10.14-4.55-8.27-6.2-.06-4.07,22.44-19.57,41.1-36.74,55.23-22.01,18.39-50.41,25.18-77.55,32-34.77,9-77.81,17.01-95.42,52.41-9.45,20.49,3.41,38.76,25.69,30.27ZM798.07,662.48c29.96-34.06,47.74-79.5,38.39-125.34-1.7-8.06-4.48-15.77-7.48-23.4-1.34-3.73-4.92-9.79-7.24-9.53-3.22-.52-3.81,8.31-3.46,12.12,5.22,81.37-51.2,153.35-121.96,187.72-14.22,7.27-29.36,11.98-44.45,16.91-3.89,1.34-7.56,3.09-9.13,4.85-4.64,4.96,7.86,6,12.51,5.6l.54-.02c55.4-1.9,105.62-25.67,142.3-68.91ZM408.97,52.52c-14.9,94-126.98,143.57-210.4,108.4-4.68-2.05-17.43-6.93-14.74,2.13,3.39,6.97,10.73,12.38,16.67,17.56,17.75,13.81,42.01,22.82,64.82,23.19h.49c73.68,1.64,154.35-40.98,163.23-116.54.82-11.08-.77-22.17-5.38-32.96-4.14-10.1-11.74-14.48-14.7-1.78ZM441.74,159.06c-1.21-.76-3.42.92-5.99,4.18-2.5,3.15-5.03,7.27-7.35,10.77-18.72,28.82-45.49,49.31-76.36,62.66-22.7,11.46-52.78,10.52-72.5,27.18-16.64,17.63,3.62,35.15,23.03,34.93,66.84-.7,118.75-66.62,138.4-126.14,1.13-3.79,3.04-11.18.91-13.49l-.14-.09ZM394.24,262.16c-10.62,9.42,3.51,10.46,10.38,9.4,40.81-5.87,79.09,14.49,119.05,17.79h.49c11.02-.12,22.13-1.9,33.07-5.14,13.36-4.1,25.99-11.46,35.93-21.36,15.57-16.04,1.67-15.6-12.33-11.04-62.85,18.21-98.94-30.16-167.25-.36-6.82,3.06-13.76,6.15-19.34,10.71ZM304.3,887.26c55.11-44.85,105.51-138.39,60.04-204.39-11.52-18.08-28.03-34.12-32.77-55.59-1.14-8.33-3.45-23.54-9.32-9.21-12.46,48.62,14.66,95.2,23.83,142.15,10,43.38-15.35,84.3-43.24,115.41-4.21,5.39-14.55,14.01-14.28,19.26l.07.14c3.53,2.36,12.05-5,15.68-7.78ZM323.01,126.28c-42.01,5.72-80.27-7.46-114.33-31.91-5.58-3.94-11.64-8.27-18.11-10.56-16.49-6.81-35.73,6.29-33.09,24.09,1.37,10.16,10.71,19.02,19.66,24.85,21.34,14.03,47.34,19.45,72.4,19.53h.51c28.43-1.12,59.91-5.16,84.13-21.33,1.56-1.53,1.99-2.91,1.13-3.81-2.12-2.05-8.69-1.24-12.31-.87ZM111.75,339.75c.29,6.25,1.98,21.52,7.78,21.89,1.08-.19,2.06-1.43,2.89-3.44,1.98-5.17,2.43-11.21,3.73-16.83,4.37-20.33,11.89-40.38,31.25-50.34,3.98-2.42,8.01-4.87,10.96-7.88,7.49-6.9,5.81-18.74-2.31-24.13-9.1-6.19-21.37-2.09-29.32,4.35-20.87,17.97-25,49.17-25.01,75.83l.03.55ZM681.18,106c-9.69-1.91-20.1-.03-29.96.09-48.08,2.05-80.04,5.7-113.03,44.04-14.04,13.39-29.48,25.15-47.95,31.65-11.42,3.78-22.89,8.19-31.5,16.89-4.25,4.34-9.09,9.74-8.11,13.04l.1.16c2.38,1.82,6.36-.58,9.15-1.28,21.42-7.28,44.51-8.25,66.93-10.65,39.81-4.94,62.17-21.99,90.81-48.45,18.12-12.94,37.66-24.73,58.39-32.85,7.29-2.1,17.38-8.73,5.18-12.64ZM517.37,671.73c.13,8.92-.57,20.12,5.74,26.78,5.39,5.83,13.86,5.69,19.83-.37,10.81-11.07,14.54-26.87,14.57-41.86-.92-57.52-33.82-105.93-82.08-135.92-7.93-5.09-16.66-8.65-25.77-10.91-15.39-3.52-11.9,5.56-2.63,11.74,47.85,35,70.42,92.36,70.35,150.02v.52ZM537.96,748.36c34.39,21.81,78.41,19.91,116.45,10.82,4-1.09,10.97-2.88,12.93-6.44l.08-.26c-.14-5.56-19.39-3.35-24.36-3.87-33.14-1.27-62.11-18.41-91.7-31.61-35.4-15.03-41.88,13.31-13.4,31.35ZM325.19,901.8c31.93-8.22,57.87-31.4,77.52-56.93,44.58-57.76,56.69-152.74,13.44-214.3-15.76-22.42-38.13-39.12-65.91-43.92-5.99-.74-11.66-1.09-12.57,2.49-.09,4.69,7.47,8.69,11.23,11.72,40.6,26.38,58.31,73.42,57.93,122.14v.5c-2.88,63.79-32.65,122.54-83.77,161.8-3.59,2.86-8.1,6.09-10.92,9.32-6.93,8.86,5.86,9.1,13.06,7.19ZM883.91,568.97c-.49-10.51-4.74-20.18-8.9-29.67-6.89-15.37-12.27-31.55-18.72-47.14-1.81-4.87-8.08-14.92-9.23-3.42,5.15,64.85,23.62,98.61-20.04,156.29-2.37,3.75-3.68,6.74-2.78,7.93l.12.15c.99,1.19,4.28.38,8.27-1.44,31.69-14.67,52.5-47.93,51.27-82.69ZM898.4,656.1c-11.47,2.1-22.56,4.31-33.86,6.52-61.52,8.65-104.41,35.51-120.42,97.89-3.9,14.15-5.05,28.75-6.63,43.27-.29,2.49-.24,5.86,1.68,7.37,3.16,2.27,6.29-.79,8.47-4.03,21.33-31.89,47.47-57.67,81.11-74.05,11.39-6,24.66-9.28,36.63-14.49,21.07-9.77,39.76-29.53,42.69-53.32l.03-.48c.4-7.52-2.32-10.22-9.7-8.68ZM914.6,134.69c-14.48-18.49-42.7-21.34-62.87-12.42-14.64,6.26-25.97,15.99-34.94,28.59-3.29,5.2-9.05,10.47-8.77,16.63,2.84,7.58,16.23-7.06,20.52-9.11,18.43-12.8,38.41-17.55,60.21-10.89,4.77,1.34,9.88,3.15,14.64,3.27h.47c9.75.33,16.84-6.84,10.74-16.06ZM574.94,626.48l.52.2c57.24,18.35,167.46-2.01,189.29-58.79,1.27-5.6-1.25-11.9-6.23-14.82-9.08-4.58-20.33,1.8-28.38,6.41-37.53,28-73.4,59.83-123.01,60.3-8.07.29-15.98-.78-23.92-2.14-3.96-.63-8.33-1.55-11.42-.46-5.96,2.18-1.47,8,3.15,9.29ZM613.51,842.85c-3.95-2.91-13.55-5.94-22.51-8.06-27.19-6.65-56.19-10.93-83.6-3.26-51.27,15.41-84.78,62.54-133.53,83.09-17.85,7.66-36.74,11.75-56.28,11.95-8.69.21-17.68-.94-26.38-1.25-6.02-.17-10.15.39-10.96,2.01-2.29,2.05,7.62,8.5,13.41,10.99,36.3,16.08,78.98,20.28,116.53,6.44,69.57-25.09,102.8-98.25,184.08-94.41h.55c8.73-.14,27.34-.8,18.69-7.5ZM594.87,886.25c5.89-7.63,14.05-23.93-2.73-21.71-40.87,11.16-75.6,37.89-109.16,62.65-24.94,19.02-53.13,34.02-84.78,38.03-5.98,1.2-17.03.96-20.57,4.51l-.07.14c.04,5.52,19.35,7.72,24.75,8.48,75.34,9.07,150.69-28.64,192.57-92.1ZM325.65,962.32c-8.68-5.34-8.38,19.58-8.54,24.44v.59c.53,13.19-.19,32.39,13.06,39.39,3.05,1.25,6.45,1.08,9.09-.81,9.91-9.15,1-23.76-1.97-35.05-3.08-8.32-6.15-23.73-11.63-28.56ZM231.19,1047.08h.52c24.58-.59,45.73-14.99,62.01-33.55,3.4-4.08,7.68-9.2,8.2-14.49-.97-9.65-18.6,6.99-22.87,8.7-7.24,4.39-15.11,7.64-23.27,9.89-24.03,6.63-42.27,3.91-64.04-6.85-10.18-3.51-11.23,4.89-7.18,11.76,8.74,15.28,28.71,24.73,46.63,24.55ZM169.24,830.06c-2.74-7.7-20.82,1.96-27.36,2.01-39.83,6.05-83.66.8-119.23,22.99-6.42,4.16-15.27,8.88-18.63,15.6l-.11.29c-1.41,8.22,15.04-.12,19.53-1.71,5.14-2.01,10.41-3.76,15.77-5.07,14.56-3.62,29.72-3.78,44.47-1.36,13.5,2.02,27.39,7.52,40.79,6.15,12.42-.96,23.36-8.11,31.64-17.12,4.9-5.63,14.01-14.52,13.12-21.79ZM225.64,1011.48c10.71.23,22.22-1.19,31.03-7.95,7.69-5.51,10.55-17.25,1-21.77-3.21-1.64-8.01-1.67-11.67-1.17-19.62,2.59-40.2,8.8-58.14-.26-3.48-1.41-14.63-9.18-14.97-1.75.31,3.27,2.63,6.24,4.64,8.76,12.16,14.05,29.13,23.25,47.66,24.11l.45.02ZM430.13,1027.83h.55c39.94-1.79,76.94-16.62,101.36-52.61,8.06-11.52,8.82-21.13-6.53-9.71-49.9,36.17-130.99,47.18-178.01,2.1-4.88-3.87-10.17-4.82-9.77,2.44,1.64,11.17,9.34,21.76,17,29.95,19.17,19.94,47.36,27.56,75.41,27.83ZM980.66,58.59s.05.02.07.03c3.76,1.42,7.44-2.31,6.33-6.17-.09-.32-.19-.64-.3-.96-.47-1.41-1.43-2.69-2.33-3.91-10.13-13.94-19.35-28.97-18.93-47.52h-29.92c-.27,20.66,23.76,50.15,45.08,58.54ZM1017.16,924.62l.13.15c.97,1.08,3.5-.37,6.29-3.04,10.09-10.07,17.54-22.37,21.27-36.24,15.27-55.25,3.56-107.11-32.85-150.8-10.97-13.16-22.94-25.26-34.71-37.54-2.9-3.19-8.34-6.94-12.18-4.19-9.08,8.68,5.92,27.29,10.32,36.35,6.36,11.03,13.77,21.46,20.1,32.48,23.95,42.37,39.98,93.66,26.18,142.4-1.13,5.92-6.2,15.16-4.56,20.43ZM118.91,763.99c-11.81,13.93,2.48,14.3,13.07,10.81,8.99-2.83,17.56-7.61,25.02-13.35,26.5-20.06,36.04-54.34,35.4-86.63v-.54c-.79-19.62-4.85-39.63-12.43-57.97-7.69-17.95-19.99-33.49-34.43-47.39-18.75-17.6-27.29-13.97-13.88,10.08,24.27,44.9,35.71,102.69,13.76,150.25-5.97,13.35-16.73,24.02-26.52,34.75ZM139.14,882.2c-14.87,7.55-31.94,8.4-48.01,4.58-7.94-1.17-17.86-6.81-25.43-3.32-4.92,4.43,1.6,11.9,7.47,16.95,11.28,9.2,25.44,14.28,39.9,14.55h.55c17.66.37,37.29-6.72,44.54-24.2,1.58-4.24,3.07-10.75-.94-13.82-4.88-2.95-13.01,2.97-18.08,5.25ZM953.3,735.68c-9.7-.47-16.12,8.71-12.42,17.61,3.68,9.51,12.47,16.51,19.01,24.18,15.36,16.89,27.58,35.77,34.72,57.2,1.44,4.85,8.4,20.72,10.04,8.89-1.87-31.11-14.91-60.76-29.32-88.29-4.54-8.54-11.15-18.78-21.56-19.56l-.47-.02ZM855.87,929.16c-25.91-14.09-57.46-15.78-85.65-9.59-28.94,6.76-57,22.06-75,46.15-8.28,12-.06,11.68,9.27,6.49,28.32-15.67,62.49-23.09,94.11-14.64,13.42,3.35,26.88,9.48,40.73,10.17l.52.02c27.02,1,43.55-23.18,16.02-38.59ZM702.09,1008.12c-13.16,14.95-9.65,40.89,12.83,42.49,18.96-.57,32.02-17.14,47.56-25.83,26.81-16.88,57.3-20.47,88.15-14.93,3.82.46,12.54,2.66,15.01.13l.11-.22c.25-4.58-7.25-8.54-10.76-10.87-44.63-25.39-115.13-31.46-152.9,9.23ZM933.57,981.57c14.33,9.95,24.56-5.09,22.35-19.73-.77-7.23-3.26-14.1-6.6-20.84-50.67-97.42-187.14-109.17-263.38-34.91-9.81,9.44-19.22,19.76-26.45,31.32-3.31,5.48-4.88,9.63-4.2,10.76l.05.08c.77,1.15,4.06-1.06,8.75-5.42,4.38-4.02,9.57-9.56,14.8-14.17,49.99-43.48,118.53-46.3,176.69-16.89,16.62,8.07,31.97,18.5,45.01,31.67,12.15,11,19.94,28.17,32.98,38.14ZM839.45,208.87c16.35-14.33,37.38-22.8,58.02-28.99,3.44-1.09,13.28-3.26,10.6-8.25-3.71-3.95-15.37-3.29-21.64-3.54h-.5c-73.52-.25-120.84,64.06-118.28,131.99.73,57.54,74.31,108.72,48.03,164.95-3.21,5.86-6.07,17.19,4.73,13.35,6.95-3.36,11.67-10.23,16.37-16.16,26.34-33.03,14.21-75.2-5.32-108.28-14.87-24.45-30.49-51.6-24.3-81.03,5.29-23.41,15.48-46.69,32.31-64.04ZM788.57,87.06l.48-.07c3.97-.28,9.52-3.04,7.82-5.65-3.85-4.88-14.12-6.08-19.88-9.17-20.72-9.02-31.92-30.37-48.42-44.8-8.16-8-23.67-9.9-27.03,3.49-2.07,9.47,3.31,19.26,8.81,26.76,17.5,23.27,50.39,29.7,78.22,29.43ZM848.62,767.07c-20.2,14.45-43.65,23.84-65.4,35.95-18.76,10.88-35.8,24.41-51.16,39.91-3.95,4.49-11.33,10.54-12.44,16.04l.02.18c.16.84,1.13.96,2.68.35,3.61-1.48,7.19-4.69,10.38-7.24,12.08-9.99,25.44-17.52,39.71-22.8,17.01-6.63,35.83-8.34,53.36-13.09,31.75-8.43,59.74-23.09,83.34-47.85,23.41-24.47,41.92-53.49,39.19-89.3-.75-10.71-2.99-21.16-5.13-31.62-3.28-16.81-8.85-13.03-10.98.82-10.41,49.14-43.1,90.81-83.56,118.67ZM448.85,825.66c-3.06,5.76-2.08,9.61,3.94,5.26,33.68-36.56,44.86-87.64,45.72-136.64v-.52c.46-83.39-50.82-194.55-147.59-186.25-41.45,3.5-81.73,37.95-87.28,80.24-2.04,16.09.88,32.54,9.12,46.38,2.66,4.75,9.18,11.75,13.23,7.26,3.36-3.7,3.85-9.2,5.06-13.92,3.29-15.78,8.51-31.45,18.42-44.72,33.34-44.97,87.61-16.66,114.12,20.05,32.71,42.15,48.56,94.64,47.97,147.86.28,27-7.2,52.69-22.72,75ZM590.61,202.95c-11.45,6.6-24.22,11.39-37.62,13.89-3.43.83-8.03,1.51-10.33,4.05-2.46,5.39,12.81,4.35,17.15,4.44h.5c46.25-.9,94.12-13.35,128.65-44.77,39.55-41.3,82.44-62.4,139.25-70.25,14.1-3.61,9.6-8.81-1.29-8.85-77.66.58-155.5,29.26-211.95,82.66-7.42,7.1-15.52,13.8-24.37,18.82ZM937.85,519.17c11.65-2.92,19.07-45.99,19.97-57.48,2.3-56.21,11.07-97.18,47.81-141.73,7.54-7.77,10.22-17.78-3.49-10.1-48.69,27.43-83.79,75.64-84.13,131.72v.54c.13,24.73,4.32,48.48,12.19,68.86,1.36,3.36,3.38,8.57,7.64,8.2ZM.69,73.08c0,13.64-.11,29.87.17,42.65,11.46.56,18.52-1.83,24.86-5.05,10.37-5.27,11.5-16.45,3.68-25.23-7.37-8.26-16.97-11.56-28.7-12.37ZM.88,138.96v22.85c15.75-4.08,28.6-12.09,40.41-21.76,5.52-4.52,10.35-9.94,15.17-15.24.23-.25.37-.59.44-.98.46-2.31-1.69-4.3-4.04-4.06-.26.03-.52.06-.78.11-.75.13-1.31,1.09-2.04,1.57C19,141.5,3.07,138.58.88,138.96ZM29.38,880.35c-7.41,1.58-20.51,4.75-28.52,6.79v12.8c17.23-4.01,28.03-3.61,41.61-3.97,2.34-.06,5.97-2.05,6.56-3.93.72-2.28-.36-6.04-2.03-7.99-4.7-5.47-11.39-5.03-17.62-3.7ZM41.51,161c.15-.15.25-.35.31-.58.54-1.97-1.26-3.77-3.29-3.63-.48.03-.93.12-1.33.31-8.23,3.82-15.97,8.84-24.55,11.78-5.91,2.02-7.89,2.81-11.83,3.71v19.61c16.2-6.47,29.02-19.52,40.7-31.21ZM104.05,156.18l-.09-.09c-5.09-.14-10.92,24.33-13.1,29.69-7.25,24.03-16.35,48.26-16.03,73.65.24,11.48,3.09,24.61,12.39,32,12.91,10.17,23.4-1.74,23.68-15.41.63-9.56-1.34-19.17-3.05-28.55-4.79-24.16-7.11-48.38-4.21-72.77.42-5,2.39-15.05.42-18.52ZM143.49,123.83c-2.75-7.84-10.58-.16-12.86,4.11-42.6,60.25,28.32,145.5,92.28,111.99,5.77-2.7,27.9-20.01,13.01-23-48.77-4.71-90.09-33.01-91.93-83.32v-.47c-.09-3.07.31-6.27-.5-9.31ZM20.5,338.15c12.94,50.26,46.04,92.46,95.58,113.52,7.35,2.78,16.93,7.76,24.28,6.18l.31-.11c12.91-6.69-18.6-42.9-24.5-50.61-17.31-21.35-34.37-43.41-49.83-66.32-22.45-35.77-40.21-77.32-29.3-120.03.95-3.55,3.02-14.39-.59-13.95-2.78.32-6.87,7.1-8.25,10.78-16.25,38.4-19.02,79.16-7.7,120.53ZM770.87,182.71c7.72-11.29,16.93-22.07,26.45-31.9,1.56-1.52,3.89-4.32,3.78-5.56v-.22c-.73-2.75-6.02-1.57-10.85.14-12.45,4.99-23.66,13.24-33.29,22.46-38.44,37.92-62.15,89.13-61.92,143.3-.35,26.72,10.9,51.44,17.46,76.85,4.84,15.98,3.4,33.14,8.87,48.89,15.25,40.22,52.61,8.1,54.85-20.58,5.23-49.3-44.7-69.18-39.31-137.84,2.87-34.12,15.33-66.77,33.97-95.56ZM673.98,1003.12c-1.56-20.39,3.05-39.36,17.43-55.05.14-.16.26-.34.36-.54,1.28-2.62-1.36-5.49-4.23-5.01-.32.05-.64.11-.95.18-.77.17-1.38,1.02-2.07,1.55-39.23,29.58-51.12,97.83-3.96,135.75h53.64c-36.95-21.73-57.41-40.21-60.21-76.88ZM612.36,925.88c.61-3.62.14-7.41.17-11.13-3.66,1.88-7.98,3.06-10.88,5.77-14.99,14-22.94,32.02-27.96,51.49-5.87,22.73,13.32,90.58,27.29,108h52.03c-3.9-4.87-7.34-9.69-11.17-14.62-32.26-41.57-38.04-88.64-29.49-139.5ZM49.93,510.73c-17.71-8.23-33.44-19.6-49.26-33.19,0,20.39-.11,40.56.15,59.03,10.54,7.89,19,12.59,27.39,14.75,8.32,2.14,17.26,1.77,25.9,2.78,19.17,2.25,36.43,8.21,48.02,25.13.77,1.12,4,1.58,4.75,1.36,8.35-2.43-4.29-22.32-9.18-29.55-12.04-17.78-28.2-31.22-47.77-40.31ZM803.14,1035.05c-19.26.64-37.38,5.64-53.55,16.47-1.82,1.22-2.66,3.9-3.96,5.9,2.15.4,4.47,1.52,6.43,1.08,21.37-4.85,42.14-2.46,61.96,6.17,9.17,3.99,17.39,10.15,26.03,15.33h73.4c-40.17-29.28-74.34-46.15-110.31-44.95ZM1007.07,903.22v-.53c-.15-10.97-2.56-23.33-7.39-33.06-3.97-7.38-8.73-6.04-8.39,3.25,6.01,65.91-28.34,77.25-24.98,111.73.21,9.43,10.01,27.54,13.94,8.98,1.71-18.19,13.5-33.44,19.24-50.4,4.54-13.13,7.31-26.62,7.57-39.98ZM931.64,1004.27c-10.02-11.84-22.26-21.88-34.1-32.04-7.28-6.24-16.54-7.09-25.3-3.46-3.49,1.45-7.26,5.35-8.17,8.85-.7,2.67,2.17,7.3,4.76,9.57,5.2,4.56,11.53,7.82,16.99,12.13,26.4,20.8,41.89,48.39,49.7,80.67h30.07c-.29-2.8-.36-5.66-.92-8.41-5.16-25.3-16.55-47.85-33.03-67.32ZM336.56,1040.55c-31.6,3.95-62.26,14.98-94.77,12.39-.44-.03-.89.1-1.35.34-2.36,1.21-2.59,4.61-.47,6.2.39.29.78.48,1.19.52,10.13.96,20.33,2.09,30.48,1.89,30.28-.6,60.61-1.41,90.17,6.45,9.83,2.61,19.48,6.31,28.48,11.66h71.82c-36.05-28.79-87.94-44.14-125.55-39.45ZM251.98,965.28c12.06-6.21,21.33-29.06,3.86-34.16-12.45-2.28-23.99,5.95-35.89,8.45-14.23,3.84-28.64,3.77-42.47-.84-5.91-1.33-15.91-7.79-21.06-3.95l-.17.24c-1.53,2.62,1.21,6.74,3.13,9.18,21.6,25.93,63.03,38.73,92.61,21.08ZM174.47,1033.21c-4.14-4.58-6.53-9.2-10.07-13.58-.29-.36-.65-.66-1.05-.93-2.13-1.41-5.18-.51-5.96,1.92-.1.31-.16.63-.15.94.2,6.49,3.14,36.35,14.03,58.43h93.31c-9.46-2.56-75.08-28.6-90.12-46.79ZM148.14,993.22c.26-9.06-6.45-14.21-15.52-13.34-6.36.61-10.82,4.04-14.35,9.12-13.43,19.32-14.46,40.7-9.34,62.55,2.29,9.78,7.06,18.98,10.71,28.44h27.46c-2.79-16.4-6.21-44.12-2.24-64.27,1.46-7.44,3.08-14.98,3.29-22.51ZM62.59,995.65c-14.73-17.75-42.98-19.18-61.75-13.72-.28,10.8-.16,24.14-.16,35.8,16.1,1,28.35,8.34,41.4,12.92,3.69,1.29,7.31,3.66,11.2,3.44,13.14-.73,17.69-10.79,16.44-21.57-.68-5.87-3.37-12.32-7.14-16.87ZM112.3,976.81c.31-.27.53-.64.69-1.08,1.1-2.97-1.59-5.97-4.73-5.56-1.21.16-2.32.45-3.18,1.09-33.38,24.67-43.45,72.1-23.36,108.74h32.69c-3.57-4.92-7.32-9.72-10.68-14.78-19.35-29.19-17.02-65.69,8.57-88.41ZM1056.26,1055.6c-9.74,4.96-18.48,9.4-18.62,24.25,14.38,0,28.62.14,43,.14v-31.3c-9.22-.27-16.81,3.05-24.38,6.9ZM152.11,963.8c-4.07-5.32-8.34-10.63-13.28-15.12-24.2-22-53.42-32.81-85.33-37.03-15.84-2.09-32.51-6.16-52.65-1.63-.45,12.79-.11,34.92-.11,48.44,55.24-17.13,105.55-12.58,144.66,11.62.63.39,1.41.51,2.28.51,2.95,0,5.38-2.6,4.93-5.51-.08-.5-.23-.94-.5-1.29ZM553.88,1014.6c.28-2.1-.22-4.34-.75-6.45-2.35-9.34-11.35-12.25-20.37-6.65-7.82,4.86-12.79,11.46-15.56,19.39-7.21,20.62-4.65,40.28,7.1,59.1h55.86c-.39-.76-29.53-41.5-26.29-65.4ZM987.76,158.9c-6.43-3.57-11.93-8.8-18.36-12.36-11.28-6.25-24.98-4.94-33.7,2.69-9.87,8.64-9.87,19.09-6.69,31.02,3.22,12.09,11.89,17.74,22,22.19,17.3,7.62,35.69,9.25,54.33,8.68,26.46-.8,51.63-6.86,75.29-18.91v-19.61c-1.72.19-3.44.31-5.15.58-30.81,4.84-60.26.99-87.73-14.27ZM980.7,225.95c-11.66-2.26-23.85-4.21-35.56-3.27-27.2,2.18-47,17.81-62.69,39.14-.14.19-.25.39-.34.62-1.16,2.94,2.11,5.88,5.05,4.73.36-.14.69-.3,1.01-.51,9.81-6.41,20.24-11.49,32.03-12,15.19-.66,30.43-.23,45.64-.52,13.03-.25,26.25.41,39.05-1.53,31-4.71,53.64-24.45,75.75-44.71v-5.23c-3.67,1.85-7.62,3.29-10.96,5.61-27.13,18.82-56.76,23.91-88.98,17.67ZM1058.13,346.91c.9,21.63,5.01,35.73,13.88,55.31,1.45,3.2,6.42,12.03,8.63,14.88v-189.59c-1.62,2.51-3.64,4.84-4.81,7.54-15.57,35.74-19.29,73.41-17.7,111.86ZM1063.73,450.41c-.11-.36-.28-.71-.5-1.04-1.97-2.93-6.63-2.58-8,.68-.14.33-.23.65-.25.99-.92,11.03-1.83,22.11-1.73,33.16.18,19.22,8.43,35.25,21.46,48.95,1.51,1.59,3.94,2.3,5.94,3.41v-58.84c-8.4-7.4-13.74-16.62-16.91-27.32ZM1037.63,0c0,6.1-.51,11.32.1,16.41,1.43,11.87,4.54,23.23,15.39,30.99,1.62,1.15,4.22,1.8,6.17,1.51.85-.12,1.9-3.28,1.68-4.92-1.95-14.92,6.16-25.44,19.67-27.1V0h-43.01ZM1034.7,1025.17c-.08.16-.14.33-.19.5-1.21,3.8,3.29,7.04,6.64,4.86.06-.04.12-.08.19-.13,11.97-8.56,24.94-13.16,39.31-12.74v-35.73c-22.06,5.84-35.91,22.19-45.94,43.23ZM1017.51,114.01c-4.45-6.66-7.75-14.08-11.99-20.9-5.2-8.38-12.68-13.31-22.89-11.86-9.8,1.39-16.3,7.58-18.63,16.9-1.25,5.01-.96,10.87.26,15.95,2.87,11.99,11.06,20.59,20.72,27.59,28.91,20.98,61.29,26.13,95.66,20.11v-22.85c-6.87-.88-44.67.03-63.13-24.95ZM1013.51.05h-28.31c.22,1.73,5.14,45.13,59.08,94.57,10.98,7.75,22.66,19.09,36.37,21.1v-42.65c-22.24-.87-58.36-42.05-67.13-73.02ZM1053.68,545.37c-1.99-4.87-5.17-9.57-8.78-13.77-8.83-10.26-23.4-9.27-30.52,1.98-5.58,8.81-7.12,18.26-4.84,28.13,6.24,27.06,37.9,47.37,71.11,51.34v-41.66c-13.53-5.37-22.12-14.17-26.96-26.03ZM1055.17,907.84c.55-.11,1.09-.24,1.62-.4,10.32-3.05,13.48-4.37,23.76-7.5v-12.8c-12.67,3.08-19.41,7.81-28.05,15.64-.02.02-.04.03-.05.05-2.16,2-.16,5.6,2.72,5.01ZM985.19,1080h28.35c2.78-63.03,22.21-101.44,60.4-119.12,2.15-1,4.46-1.66,6.69-2.48v-48.38c-61.1,16.65-111.8,104.17-95.45,169.98ZM1066.27,862.31c4.9-5.03,9.64-9.9,14.38-14.76v-45.3c-8.82,11.09-19.64,42.15-20.46,57.37-.18,3.29,3.79,5.05,6.08,2.69ZM1011.76,669.37c-20.39-14.22-35.11-33.47-47.54-54.72-.12-.2-.25-.39-.4-.58-2.71-3.32-8.37-1.58-8.67,2.69-.03.35,0,.7.06,1.04,9.53,47.9,35.76,82.77,81.36,101.71,14,5.81,28.88,7.96,44.07,4.52v-40.53c-25.55,7.94-48.02.42-68.88-14.13ZM1044.97,635.3c-20.17-2.02-37.83-10.09-52.71-22.98-.35-.3-.76-.56-1.21-.77-3.25-1.56-7.17,1.04-6.66,4.61.05.38.15.75.31,1.09,1.99,4.34,4.63,8.59,7.83,12.29,12.99,15.03,30.38,24.12,50.15,29.65,12.4,3.47,25.03,5.13,37.96,2.54v-27.43c-11.9.43-23.96,2.18-35.67,1.01ZM.65,1048.7v31.3h55.51c-12.21-18.54-31.38-30.75-55.51-31.3ZM980.44,513.67c36.3-32.57,62.32-75.63,66.73-124.75.32-13.83.59-29.97-7.43-41.94-4.2-5.64-11.22-9.1-18.67-9.27-13.99-.36-23.11,13.31-27.58,24.92-9.71,34.54-.2,71.27-9.28,105.98-5.04,20.32-14.48,39.15-26.89,55.99-2.43,3.25-7.65,10.14-6.43,12.46l.1.18c.87,1.68,5.06-.88,6.68-2.35,7.67-6.88,14.96-14.37,22.77-21.22ZM1034.95,252.67c-26.69,15.78-58.7,6.16-87.33,14.19-12.47,2.92-28.36,10.99-29.64,25.39-1.46,14.49,14.98,24.23,27.96,24.16h.5c34.39-3.33,66.65-27.22,90.92-50.89,4.93-5.16,10.95-10,14.63-15.99,4.69-11.01-13.49,1.54-17.05,3.14ZM629.64,979.84l.14.03c.66.09,1.23-.64,1.64-2.05,1.43-6.24.88-13.06,1.64-19.62,1.33-15.1,6.29-30.01,14.5-42.71,14.73-22.41,32.65-42.77,50.96-62.14,5.98-6.47,11.92-13.04,16.19-20.82,15.87-29.58-3.61-49.13-31.99-29.89-48.18,37.66-69.2,105.6-57.96,165.33.77,3.58,2.43,10.61,4.88,11.86ZM978.65,878.98c-.33-2.42-.81-4.89-1.39-7.34-8.95-38.41-41.5-58.77-78.21-59.71h-.53c-14.82-.05-29.96,5.07-41.37,14.57-5.2,3.92-14.14,15.27-2.38,16.72,34.12.23,65.8,21.85,83.5,50.39,5.83,8.16,9.86,23.99,21.84,24.09,16.33-2.4,20.55-24.81,18.54-38.72ZM889.95,434.74c.12-10.64,2.95-21.16,8.29-31.15,1.22-2.4,3.17-7.11.63-8.43-9.62-1.91-22.19,14.52-25.64,22.78-13.13,31.79-9.75,67.43,3.87,98.43,9.61,22.72,22.86,44.69,23.35,70.12v.51c.15,11.06-4.77,23.5-13.1,32.86-4.66,5.72-11.74,10.72-12.28,18.62,1.23,14.54,22.33,3.79,29.47.04,6.82-3.92,12.59-9.13,16.85-15.91,12.25-21.74,10.9-49.76,5.02-73.3-9.32-32.18-25.06-62.14-33.91-94.38-1.73-6.58-2.67-13.46-2.55-20.19ZM913.06,208.6c4.63-3.08,13.49-11.21,3.31-13.19-48.96.01-91.69,38.52-90.4,88.67v.51c.25,13.93,3.87,27.83,11.05,42.29,6.65,13,14.09,8.97,13.29-4.49-.98-45.53,26.65-87.59,62.75-113.8ZM884.88,292.52c-2.55-2.06-6.79-5.67-9.93-3.67-1.41,1.11-1.13,3.88-.21,6.89,3.84,10.56,5.88,21.89,2.52,32.78-3.78,13.63-14.78,23.69-20.3,36.43-4.51,9.33-3.49,21.71,3.25,29.74,6.81,7.24,16.07.76,22.41-4.84,14.26-12.65,21.95-30.67,22.59-49.66v-.53c-.21-18.19-6.95-35.15-20.34-47.12ZM727.01,740.82c1.66-3.51,6.01-12.25,1.34-13.49-4.81.23-9.78,7.59-13.79,11.57-12.77,13.56-27.54,23.93-44.57,31.01-21.39,9.18-45.35,11.51-68.2,7.39-15.26-2.32-30.28-8.24-45.58-8.27-27.88-1.03-50.66,18.54-64.54,41.17-3.91,5.87-6.25,14.46,2.68,11.55,4.34-1.61,8.84-4.79,13.15-6.9,9.27-4.86,20.1-5.16,30.81-5.01,19.13.36,38.98,4.89,57.62,6.39l.5.02c59.24,1.32,107.92-25.42,130.58-75.41ZM48.92,625.81c.16-1.09-.64-2.16-1.74-2.17-.19,0-.37.03-.51.11-13.33,7.26-31.11,9.08-45.83,10.55-.31,7.36-.15,20.02-.15,27.43,21.94-1.71,46-20.47,48.23-35.91ZM.66,847.35c20.95-18.04,36.33-38.71,48.24-61.79,4.7-9.11,7.94-19.41,9.52-29.54,1.02-6.55-.9-14.35-3.76-20.55-5.16-11.18-18.82-12.21-26.11-2.23-4.44,6.07-7.86,13.04-10.81,20-4.32,10.2-7.96,30.71-17.29,49.77.36,12.94.2,30.23.2,44.34ZM958.22,71.87c-4.18-15.97-22.28-26.78-38.11-27.35h-.54c-24.06-.31-43.52,13.85-53.42,34.62-1.31,3.08-4.49,9.05-1.46,11.45,2.34,1.38,8.72-3.84,11.85-6.1,13.68-10.12,25.51-14.21,41.74-9.09,9.31,2.61,17.71,8.6,27.05,10.6,8.31,1.83,14.82-5.87,12.89-14.12ZM73.28,680.29c14.89-16.93,26.19-35.81,30.3-58.28.18-.96-.06-1.99-.47-3.06-1.14-2.96-4.72-4.24-7.43-2.59-.77.47-1.47,1-2.03,1.66-4.5,5.28-8.05,11.4-12.68,16.54-21.7,24.12-47.72,41.21-80,48.49v40.97c33.63-8.27,54.98-24.04,72.31-43.74ZM34.38,831.34c-.52,8.26,17.14-1.53,21.58-1.94,10.34-2.78,21.14-2.35,31.78-1.95,22.13,1.43,43.68-2.56,62.2-14.96,31.81-21.5-5.08-28.2-25.52-29.41l-.55-.02c-30.1-1.29-78.47,19.14-89.49,48.29ZM190.81,914.68h.49c54.09.88,97.82-57.04,97.16-128.96-.09-5.42-.84-16.74-5.03-18.32-6.42.99-6.03,24.72-8.38,31.54-9.67,47.52-43.92,71.54-88.79,80.16-26.63,7.95-24.06,35.66,4.54,35.58ZM50.14,579.46c-14.92,4.91-28.67.67-42.3-5.02-2.09-.87-4.31-2.11-6.84-2.94v41.58c17.13.44,30.81-5.85,42.94-16.04,3.95-3.32,7.32-7.39,10.54-11.46,2.51-3.17,1.58-8.93-4.33-6.12ZM54.97,228.24c-.38,9.51.43,19.09,1.12,28.61.01.2.06.4.14.6.99,2.62,4.77,2.49,6.15.06.18-.32.35-.65.51-.99.41-.89,0-2.14,0-3.23-.01-17.31,1.45-34.6,7.56-50.77,7.13-18.89,13.05-38.74,24.14-55.61C123.21,103.43,125.87,21.9,114.4.07h-32.69c4.9,9.98,9.08,18.19,10.51,26.97,5.56,34.29,1.76,67.58-10.77,100.04-12.62,32.7-25.06,65.55-26.48,101.16ZM144.63,61.08c4.69,9.1,13.13,14.53,23.96,14.42,7.7-.07,11.08-5.15,8.31-12.26-1.09-2.8-2.65-5.5-4.41-7.96-11.34-15.85-25.25-50.11-25.4-55.22-6.9,0-19.58,0-27.46,0,2.36,8.44,3.37,12.07,5.46,17.16,6.06,14.81,12.22,29.64,19.54,43.85ZM196.54,21.82c25.73,13.73,53.4,17.79,82.13,15.34,20.59-1.76,40.22-7.09,57.73-18.53.03-.02.06-.04.09-.06,3.82-2.61,1.45-8.9-3.14-8.3-.02,0-.05,0-.07.01C310.1,13.68,266.24.8,264.45.07c-29.58-.07-62.13-.01-93.6-.01,7.64,10.11,16.13,16.66,25.69,21.76ZM.72,405.94c0,2.78.1,7.87.1,11.15,10.69,16.08,28.25,48.59,52.43,66.55,7.95,5.9,16.75,9.13,26.41,10.34,12.89,1.61,26.41-4.53,31.57-14.21,4.09-7.68,2.1-16.85-4.33-20.79-47.39-29.06-80.43-69.56-96.5-123.03-9.33-31.04-11.43-62.59-.43-93.74,3.95-11.19,10.08-21.61,14.83-32.54.37-.86.3-1.91.1-3.02-.37-2-2.41-3.24-4.33-2.56-.89.31-1.68.71-2.21,1.32-2.26,2.58-13.15,12.72-17.56,22.08-1.74,26.47-.15,73.43-.15,100.01,0,26.14-.03,52.28.05,78.42ZM228.68,54.83c-4.92-2.48-9.77-5.26-14.67-7.73-3.24-1.6-7.12-2.95-9.27-1.88-3.7,1.94-.35,7.51,1.74,10.24,22.58,28.94,51.47,45.94,83.44,47.41h.54c91.06,2.45,105.11-105.91,80.17-79.74-32.58,48.31-91.14,58.44-141.94,31.69ZM36.29,37.2c5.75,11.81,7.96,24.28,5.21,37.37-1.57,7.49.96,13.09,6.97,15.78,5.52,2.47,12.06.84,15.71-5.5,3.41-5.91,11.72-28.93-1.64-72.49C61.27,8.2,56.16.07,56.16.07c-14.81,0-40.64,0-55.51,0,.01,2.66.24,10.96.24,16.82,16.5-.67,28.41,5.94,35.4,20.3ZM677.02,62.62c6.16,1.83,12.82,2.19,19.29,2.63,1.63.11,4.11-1.71,4.88-3.29.51-1.04-.99-3.53-2.17-4.84-1.43-1.58-3.5-2.55-5.25-3.85-18.33-13.62-20.5-21.38-40.76-53.22-17.38,0-34.34,0-52.03,0,.93,1.8,44.25,53.1,76.03,62.57ZM773.41,19.4c.32-.07.64-.19.94-.37,3.03-1.74,2.61-6.47-.65-7.72-.35-.13-.7-.21-1.05-.21-11.66-.09-32.46-9-38.46-10.96-15.71-.22-37.93-.07-53.64-.1,24.12,19.37,71.91,23.58,92.86,19.35ZM930.01,38.37c2.61.96,5.48-.92,5.85-3.68.1-.77.08-1.49-.18-2.1-5.28-12.39-20.77-32.5-22.39-32.5-26.32-.09-46.9-.06-73.22-.06,46.75,26.3,59.18,14.5,88.99,37.83.28.22.6.39.96.52ZM781.45,59.06c10.93,6.94,23.75,10.43,36.78,10.61h.57c20.15.22,40.77-9.14,52.57-25.7,3.54-4.54,6.67-12.83,4.3-15.69-8.19-9.99-36.87,27.32-84.97,18.57-15.3-2.98-25.8.36-9.26,12.21ZM462.48,112.2c.04.26.09.52.16.78,1.15,4.39,6.78,5.35,9.25,1.54.3-.47.54-.95.69-1.46,3.3-11.22,6.95-22.51,8.44-34.04,3.41-26.35,8.85-43.33-15.11-74.48-1.21-1.92-1.95-2.63-3.8-4.47-23.48,0-47.94-.03-71.82-.03,9.61,6.57,18.34,11.94,26.55,18.91,28.66,24.36,40.52,57.18,45.65,93.25ZM467.69,159.79c-3,3.04-6.88,5.27-8.38,9.01-1.23,3.49,2.04,5.23,5.65,4.28,12.57-3.18,23.02-11.5,34.37-17.5,16.11-8.56,30.01-20.01,41.99-33.49,11.16-11.74,18.51-26.56,18.22-43.25v-.5c1.29-36.47-50.19-50.2-53.66-7.89,2.35,34.02-13.87,66.31-38.19,89.33ZM702.79,90.55c.16-.01.32-.04.47-.08,2.88-.69,3.71-4.96,1.11-6.37-.99-.54-3.95-1.4-5.02-1.56-51.32-7.96-103.11-58.03-119.17-82.48-17.68,0-36.7,0-55.86,0,1.41,2.89,2.78,4.82,3.83,6.59,39.52,67.34,113.7,89,174.65,83.89Z"/>
  </g>
</svg>