<?xml version="1.0" encoding="UTF-8" standalone="no"?>
<!-- Created with Inkscape (http://www.inkscape.org/) -->

<svg
   width="300.43271"
   height="74.953423"
   viewBox="0 0 79.489486 19.831426"
   version="1.1"
   id="svg1"
   inkscape:version="1.4.2 (ebf0e940d0, 2025-05-08)"
   sodipodi:docname="SICME - Logo.svg"
   inkscape:export-filename="./SICME - Logo.png"
   inkscape:export-xdpi="639.07825"
   inkscape:export-ydpi="639.07825"
   xmlns:inkscape="http://www.inkscape.org/namespaces/inkscape"
   xmlns:sodipodi="http://sodipodi.sourceforge.net/DTD/sodipodi-0.dtd"
   xmlns="http://www.w3.org/2000/svg"
   xmlns:svg="http://www.w3.org/2000/svg">
  <sodipodi:namedview
     id="namedview1"
     pagecolor="#505050"
     bordercolor="#eeeeee"
     borderopacity="1"
     inkscape:showpageshadow="0"
     inkscape:pageopacity="0"
     inkscape:pagecheckerboard="0"
     inkscape:deskcolor="#505050"
     inkscape:document-units="px"
     inkscape:zoom="2"
     inkscape:cx="142"
     inkscape:cy="81.75"
     inkscape:window-width="1920"
     inkscape:window-height="1052"
     inkscape:window-x="0"
     inkscape:window-y="0"
     inkscape:window-maximized="1"
     inkscape:current-layer="layer1" />
  <defs
     id="defs1" />
  <g
     inkscape:label="Layer 1"
     inkscape:groupmode="layer"
     id="layer1">
    <path
       style="font-weight:bold;font-size:14.8167px;line-height:1.1;font-family:'TJWHVF+GMX-BoldSc';-inkscape-font-specification:'TJWHVF+GMX-BoldSc Bold';text-align:center;text-anchor:middle;fill:#9f203b;stroke-width:1.46368;stroke-linejoin:round"
       d="m 4.0894329,0.46408964 q 1.8669042,0 3.1411404,0.78528506 L 7.4528238,1.6642423 Q 7.2750234,2.7754948 7.0379562,3.9163807 6.3415713,3.9608308 5.8229868,3.8719306 5.6896365,2.716228 5.5562862,2.0939266 4.9636182,1.679059 3.9116325,1.679059 q -0.9779022,0 -1.5409368,0.4148676 -0.3259674,0.5185845 -0.3259674,1.0668024 0,0.5778513 0.4148676,1.0223523 0.4148676,0.4296843 1.0223523,0.6815682 0.6223014,0.2370672 1.3483197,0.5630346 0.7260183,0.3111507 1.333503,0.6371181 0.6223014,0.3259674 1.037169,0.9186354 0.4148676,0.592668 0.4148676,1.3927698 0,1.3038696 -1.0668024,2.1039716 -1.0668024,0.800102 -2.8596231,0.800102 -1.9706211,0 -3.64490822,-0.903819 L 2.367933e-5,10.228295 Q -0.02960972,9.0577756 0.04447378,8.0354233 0.65195848,7.9317064 1.3483434,7.9761565 q 0.1629837,0.8741853 0.3556008,1.629837 0.296334,0.2074338 0.8741853,0.3556008 0.5778513,0.1333507 1.1408859,0.1333507 0.9334521,0 1.5261201,-0.2963344 Q 5.6007363,9.3392929 5.6007363,8.6873581 5.6007363,8.05024 5.022885,7.6205557 4.4598504,7.1760547 3.6449319,6.8797207 2.8448301,6.5833867 2.0299116,6.2277859 1.2298098,5.8721851 0.65195848,5.2054336 0.08892388,4.5386821 0.08892388,3.5607799 q 0,-1.3631364 1.15570262,-2.222505 Q 2.4003291,0.46408964 4.0894329,0.46408964 Z M 9.5568051,10.317195 10.890308,9.9319609 q 0.0889,-0.5037678 0.0889,-2.7707229 V 4.494232 q 0,-2.4151221 -0.118533,-2.5781058 Q 10.742141,1.7531425 9.5568051,1.4271751 L 9.7197888,0.68634014 H 14.164799 L 14.327782,1.4271751 12.99428,1.8124093 q -0.0889,0.5037678 -0.0889,2.7707229 v 2.667006 q 0,2.4151221 0.118534,2.5781058 0.118534,0.1629837 1.303869,0.488951 L 14.164799,11.05803 H 9.7197888 Z M 21.51389,9.9467776 q 1.289053,0 1.852087,-0.4000509 0.429684,-1.7631873 0.444501,-1.8520875 0.740835,-0.04445 1.318686,0.059267 0.04445,0.5630346 0.04445,2.1039714 l -0.192618,0.4000506 q -1.511303,1.022353 -3.674541,1.022353 -2.385489,0 -3.778259,-1.4075869 -1.392769,-1.4224032 -1.392769,-3.8819754 0,-2.4595722 1.555753,-3.9856923 1.555754,-1.54093676 3.881975,-1.54093676 1.763188,0 3.452292,0.85936856 l 0.207433,0.4000509 Q 25.129164,2.3754439 24.78838,4.2867982 24.062362,4.3312483 23.558594,4.2275314 23.528961,4.049731 23.188177,2.12356 22.506609,1.7383258 21.484256,1.7383258 q -1.303869,0 -2.133605,0.592668 -1.155702,1.3779531 -1.155702,3.5411913 0,1.8817209 0.874185,2.9781567 0.889002,1.0964358 2.444756,1.0964358 z m 9.586405,0.3704174 -0.148167,0.740835 H 26.788635 L 26.640468,10.317195 28.018421,9.9319609 Q 28.181405,8.3317573 28.359205,5.4573175 28.566639,2.2865437 28.433289,1.975393 28.270305,1.7679592 27.129419,1.4271751 l 0.162984,-0.74083496 h 4.104226 Q 32.537515,3.9904642 34.167352,7.605739 36.582474,1.7086924 36.923258,0.68634014 h 3.911609 l 0.162983,0.75565166 -1.422403,0.4741344 0.296334,5.1413949 q 0.13335,2.4151221 0.340784,2.7410895 0.13335,0.2370674 1.25942,0.5185844 l -0.162984,0.740835 h -4.563544 l -0.162983,-0.740835 1.52612,-0.3852341 q 0,-0.3556008 -0.07408,-1.6446537 -0.05927,-1.2890529 -0.162983,-3.0522402 -0.0889,-1.7631873 -0.133351,-2.8892565 l -3.155957,7.556517 q -0.755651,0.0889 -1.52612,0 -0.2667,-0.6223014 -1.452036,-3.407841 -1.185336,-2.8003563 -1.792821,-4.148676 l -0.177801,3.6004581 q -0.01482,0.4741344 -0.04445,1.1408859 -0.02963,0.6667515 -0.04445,1.037169 -0.01482,0.3704175 -0.02963,0.7704684 0,0.3852342 0,0.592668 0.01482,0.2074338 0.04445,0.2815173 0.02963,0.074084 0.118534,0.148167 0.103716,0.059267 0.281517,0.1185338 0.1778,0.05927 0.325967,0.103717 0.162984,0.02963 0.414868,0.0889 0.2667,0.05927 0.400051,0.0889 z m 11.868185,0 1.333503,-0.3852341 q 0.0889,-0.5037678 0.0889,-2.7707229 V 4.494232 q 0,-2.4447555 -0.13335,-2.5929225 Q 44.094549,1.7086924 42.96848,1.4271751 l 0.162983,-0.74083496 h 3.867159 q 2.815173,0 4.40056,-0.1185336 0.162984,0.2074338 0.355601,0.51858446 -0.05927,0.3852342 -0.222251,1.3038696 -0.148167,0.9186354 -0.192617,1.2297861 -0.622301,0.029633 -1.185336,-0.074083 L 49.843428,1.7531425 q -0.651934,-0.059267 -1.822454,-0.059267 -0.666751,0 -1.61502,0.029633 -0.0889,0.9334521 -0.0889,2.8448064 v 0.8741853 l 3.304124,-0.1333503 0.251884,0.296334 -0.177801,0.9779022 -3.378207,-0.1037169 v 0.7704684 q 0,2.370672 0.13335,2.5929225 0.207434,0.2222503 1.778004,0.2222503 0.844552,0 1.822454,-0.1185334 L 50.46573,8.1243235 q 0.666751,-0.029633 1.259419,0.059267 0.07408,1.4075865 0,2.8744397 h -8.593686 z"
       id="text4"
       aria-label="SICME" />
    <g
       id="text6"
       style="font-weight:500;font-size:2.91042px;line-height:1.1;font-family:Montserrat;-inkscape-font-specification:'Montserrat Medium';text-align:center;text-anchor:middle;fill:#9f203b;stroke-width:1.46368;stroke-linejoin:round"
       aria-label="Sistema de Inventarios y Control de&#10;Mantenimiento de Equipo">
      <path
         style="font-weight:bold;-inkscape-font-specification:'Montserrat Bold';text-align:start;text-anchor:start;fill:#bc955c"
         d="m 0.8294702,16.100273 c 0.582084,0 0.8643947,-0.291042 0.8643947,-0.631561 0,-0.747978 -1.18454089,-0.488951 -1.18454089,-0.864395 0,-0.128059 0.10768554,-0.232834 0.38708585,-0.232834 0.18044604,0 0.37544414,0.05239 0.56462144,0.160073 l 0.145521,-0.357981 C 1.417375,14.054247 1.1554372,13.993129 0.89932028,13.993129 c -0.57917357,0 -0.85857388,0.288131 -0.85857388,0.634471 0,0.756709 1.1845409,0.494772 1.1845409,0.876037 0,0.125148 -0.1135064,0.218281 -0.39290668,0.218281 -0.24447527,0 -0.50059223,-0.08731 -0.672307,-0.212461 L 5.1897764e-7,15.864529 C 0.18044656,16.004229 0.50641359,16.100273 0.8294702,16.100273 Z m 1.1554381,-0.03493 H 2.4389338 V 14.499542 H 1.9849083 Z M 2.2119211,14.28126 c 0.1717147,0 0.2852211,-0.110596 0.2852211,-0.261938 0,-0.1397 -0.1164168,-0.244475 -0.2852211,-0.244475 -0.165894,0 -0.2823108,0.110596 -0.2823108,0.253207 0,0.14261 0.1164168,0.253206 0.2823108,0.253206 z m 1.1758114,1.807371 c 0.4685776,0 0.7392467,-0.20664 0.7392467,-0.497682 0,-0.617009 -0.9458865,-0.357981 -0.9458865,-0.62574 0,-0.08149 0.087313,-0.145521 0.291042,-0.145521 0.1426106,0 0.2968628,0.0291 0.4511151,0.116417 l 0.1513418,-0.323057 c -0.1484314,-0.08731 -0.3870858,-0.13679 -0.6024569,-0.13679 -0.4569359,0 -0.7246946,0.209551 -0.7246946,0.506413 0,0.381265 0.3521608,0.433653 0.6286507,0.471488 0.1746252,0.02619 0.3172358,0.04948 0.3172358,0.148432 0,0.08731 -0.078581,0.14261 -0.2881316,0.14261 -0.1920877,0 -0.4045483,-0.06112 -0.5442485,-0.151341 l -0.1513418,0.325967 c 0.145521,0.09604 0.4132796,0.168804 0.6781278,0.168804 z m 1.6589397,0 c 0.1397001,0 0.2764899,-0.03201 0.3696233,-0.09895 L 5.2940579,15.669531 c -0.049477,0.03784 -0.1164168,0.05821 -0.1833565,0.05821 -0.1222376,0 -0.1949981,-0.07276 -0.1949981,-0.20664 v -0.672307 h 0.3899962 v -0.34925 H 4.9157033 v -0.34634 H 4.4616778 v 0.34634 H 4.2201129 v 0.34925 h 0.2415649 v 0.678128 c 0,0.372534 0.215371,0.561711 0.5849944,0.561711 z m 1.3533434,0 c 0.2823107,0 0.5005922,-0.08731 0.6461132,-0.253207 L 6.804564,15.573487 c -0.1076856,0.101864 -0.2270128,0.151342 -0.3929067,0.151342 -0.2386545,0 -0.4045484,-0.119328 -0.4482047,-0.314326 h 1.1845409 c 0.00291,-0.03783 0.00873,-0.08731 0.00873,-0.122237 0,-0.503503 -0.3550713,-0.812008 -0.8149176,-0.812008 -0.4773089,0 -0.8352905,0.337609 -0.8352905,0.806187 0,0.465667 0.3521608,0.806186 0.8934989,0.806186 z M 5.9605422,15.145655 c 0.032015,-0.197909 0.1775356,-0.325967 0.3841754,-0.325967 0.2037294,0 0.3521608,0.128058 0.3841755,0.325967 z m 1.4988676,0.919693 h 0.4540255 v -0.785814 c 0,-0.2794 0.1426106,-0.410369 0.3434296,-0.410369 0.1891773,0 0.2968628,0.116417 0.2968628,0.369623 v 0.82656 h 0.4540255 v -0.785814 c 0,-0.2794 0.1426106,-0.410369 0.34634,-0.410369 0.1833564,0 0.2968628,0.116417 0.2968628,0.369623 v 0.82656 h 0.454026 v -0.89641 c 0,-0.477309 -0.2677591,-0.69268 -0.6402929,-0.69268 -0.235744,0 -0.4394734,0.09604 -0.5646214,0.256117 -0.1076856,-0.171714 -0.2968629,-0.256117 -0.5151444,-0.256117 -0.2008189,0 -0.3754441,0.06985 -0.4918609,0.20373 V 14.499542 H 7.4594098 Z m 4.0134682,0 h 0.424921 v -0.893499 c 0,-0.474399 -0.27649,-0.695591 -0.753799,-0.695591 -0.250296,0 -0.503502,0.06694 -0.675217,0.189178 l 0.162984,0.317235 c 0.113506,-0.09022 0.285221,-0.145521 0.451115,-0.145521 0.244475,0 0.360892,0.113507 0.360892,0.308505 h -0.360892 c -0.477309,0 -0.672307,0.192088 -0.672307,0.468578 0,0.270669 0.218281,0.474398 0.584994,0.474398 0.229923,0 0.389996,-0.07567 0.477309,-0.215371 z m -0.0291,-0.494772 c -0.05239,0.142611 -0.183357,0.212461 -0.334699,0.212461 -0.160073,0 -0.256117,-0.07567 -0.256117,-0.189177 0,-0.104775 0.06694,-0.183357 0.279401,-0.183357 h 0.311415 z m 2.360355,0.518055 c 0.20955,0 0.375444,-0.06694 0.488951,-0.203729 v 0.180446 h 0.433652 v -2.159532 h -0.454025 v 0.75962 c -0.116417,-0.128059 -0.27649,-0.189178 -0.468578,-0.189178 -0.442384,0 -0.782903,0.314326 -0.782903,0.806187 0,0.491861 0.340519,0.806186 0.782903,0.806186 z m 0.07858,-0.372534 c -0.227013,0 -0.401638,-0.162983 -0.401638,-0.433652 0,-0.270669 0.174625,-0.433653 0.401638,-0.433653 0.224102,0 0.398727,0.162984 0.398727,0.433653 0,0.270669 -0.174625,0.433652 -0.398727,0.433652 z m 2.040203,0.372534 c 0.282311,0 0.500592,-0.08731 0.646113,-0.253207 l -0.241565,-0.261937 c -0.107685,0.101864 -0.227013,0.151342 -0.392907,0.151342 -0.238654,0 -0.404548,-0.119328 -0.448204,-0.314326 h 1.184541 c 0.0029,-0.03783 0.0087,-0.08731 0.0087,-0.122237 0,-0.503503 -0.355071,-0.812008 -0.814918,-0.812008 -0.477308,0 -0.83529,0.337609 -0.83529,0.806187 0,0.465667 0.352161,0.806186 0.893499,0.806186 z M 15.48344,15.145655 c 0.03201,-0.197909 0.177536,-0.325967 0.384176,-0.325967 0.203729,0 0.352161,0.128058 0.384175,0.325967 z m 2.354534,0.919693 h 0.471488 v -2.037294 h -0.471488 z m 0.9226,0 h 0.454025 v -0.774172 c 0,-0.288132 0.157163,-0.422011 0.375445,-0.422011 0.200819,0 0.317235,0.116417 0.317235,0.369623 v 0.82656 h 0.454026 v -0.89641 c 0,-0.477309 -0.2794,-0.69268 -0.649024,-0.69268 -0.21246,0 -0.395817,0.07276 -0.518054,0.209551 v -0.186267 h -0.433653 z m 2.406918,0 h 0.468577 l 0.660666,-1.565806 h -0.436563 l -0.448205,1.065213 -0.433652,-1.065213 h -0.468578 z m 2.048936,0.02328 c 0.282311,0 0.500592,-0.08731 0.646113,-0.253207 l -0.241565,-0.261937 c -0.107685,0.101864 -0.227012,0.151342 -0.392906,0.151342 -0.238655,0 -0.404549,-0.119328 -0.448205,-0.314326 h 1.184541 c 0.0029,-0.03783 0.0087,-0.08731 0.0087,-0.122237 0,-0.503503 -0.355071,-0.812008 -0.814917,-0.812008 -0.477309,0 -0.835291,0.337609 -0.835291,0.806187 0,0.465667 0.352161,0.806186 0.893499,0.806186 z m -0.439473,-0.942976 c 0.03201,-0.197909 0.177535,-0.325967 0.384175,-0.325967 0.203729,0 0.352161,0.128058 0.384176,0.325967 z m 1.498866,0.919693 h 0.454026 v -0.774172 c 0,-0.288132 0.157162,-0.422011 0.375444,-0.422011 0.200819,0 0.317236,0.116417 0.317236,0.369623 v 0.82656 h 0.454025 v -0.89641 c 0,-0.477309 -0.2794,-0.69268 -0.649023,-0.69268 -0.212461,0 -0.395817,0.07276 -0.518055,0.209551 v -0.186267 h -0.433653 z m 2.651393,0.02328 c 0.139701,0 0.27649,-0.03201 0.369624,-0.09895 L 27.1746,15.669531 c -0.04948,0.03784 -0.116417,0.05821 -0.183356,0.05821 -0.122238,0 -0.194998,-0.07276 -0.194998,-0.20664 v -0.672307 h 0.389996 v -0.34925 h -0.389996 v -0.34634 H 26.34222 v 0.34634 h -0.241565 v 0.34925 h 0.241565 v 0.678128 c 0,0.372534 0.215371,0.561711 0.584994,0.561711 z m 1.533791,-0.02328 h 0.424921 v -0.893499 c 0,-0.474399 -0.27649,-0.695591 -0.753799,-0.695591 -0.250296,0 -0.503502,0.06694 -0.675217,0.189178 l 0.162983,0.317235 c 0.113507,-0.09022 0.285221,-0.145521 0.451115,-0.145521 0.244476,0 0.360892,0.113507 0.360892,0.308505 h -0.360892 c -0.477308,0 -0.672307,0.192088 -0.672307,0.468578 0,0.270669 0.218282,0.474398 0.584995,0.474398 0.229923,0 0.389996,-0.07567 0.477309,-0.215371 z M 28.4319,15.570576 c -0.05239,0.142611 -0.183356,0.212461 -0.334698,0.212461 -0.160073,0 -0.256117,-0.07567 -0.256117,-0.189177 0,-0.104775 0.06694,-0.183357 0.279401,-0.183357 H 28.4319 Z m 0.864397,0.494772 h 0.454025 v -0.739247 c 0,-0.299773 0.165894,-0.436563 0.41619,-0.436563 0.03492,0 0.06403,0.0029 0.101865,0.0058 v -0.419101 c -0.241565,0 -0.427832,0.07858 -0.538428,0.229924 v -0.20664 h -0.433652 z m 1.24275,0 h 0.454025 V 14.499542 H 30.539047 Z M 30.76606,14.28126 c 0.171714,0 0.285221,-0.110596 0.285221,-0.261938 0,-0.1397 -0.116417,-0.244475 -0.285221,-0.244475 -0.165894,0 -0.282311,0.110596 -0.282311,0.253207 0,0.14261 0.116417,0.253206 0.282311,0.253206 z m 1.394092,1.807371 c 0.497682,0 0.858574,-0.334698 0.858574,-0.806186 0,-0.471488 -0.360892,-0.806187 -0.858574,-0.806187 -0.497682,0 -0.861484,0.334699 -0.861484,0.806187 0,0.471488 0.363802,0.806186 0.861484,0.806186 z m 0,-0.372534 c -0.227013,0 -0.401638,-0.162983 -0.401638,-0.433652 0,-0.270669 0.174625,-0.433653 0.401638,-0.433653 0.227013,0 0.398727,0.162984 0.398727,0.433653 0,0.270669 -0.171714,0.433652 -0.398727,0.433652 z m 1.688045,0.372534 c 0.468577,0 0.739246,-0.20664 0.739246,-0.497682 0,-0.617009 -0.945886,-0.357981 -0.945886,-0.62574 0,-0.08149 0.08731,-0.145521 0.291042,-0.145521 0.142611,0 0.296863,0.0291 0.451115,0.116417 l 0.151342,-0.323057 c -0.148432,-0.08731 -0.387086,-0.13679 -0.602457,-0.13679 -0.456936,0 -0.724695,0.209551 -0.724695,0.506413 0,0.381265 0.352161,0.433653 0.628651,0.471488 0.174625,0.02619 0.317236,0.04948 0.317236,0.148432 0,0.08731 -0.07858,0.14261 -0.288132,0.14261 -0.192087,0 -0.404548,-0.06112 -0.544248,-0.151341 l -0.151342,0.325967 c 0.145521,0.09604 0.41328,0.168804 0.678128,0.168804 z m 2.04021,0.564621 c 0.28231,0 0.497681,-0.113506 0.649023,-0.49186 l 0.707232,-1.66185 h -0.436563 l -0.442384,1.065213 -0.439473,-1.065213 h -0.468578 l 0.678128,1.577447 -0.0058,0.01455 c -0.06112,0.139701 -0.130969,0.194999 -0.256117,0.194999 -0.09022,0 -0.186266,-0.03784 -0.256117,-0.09896 l -0.165893,0.323057 c 0.101864,0.09022 0.276489,0.14261 0.436563,0.14261 z m 3.373176,-0.552979 c 0.355071,0 0.649023,-0.128059 0.841111,-0.363803 l -0.302684,-0.2794 c -0.13679,0.160073 -0.308504,0.241565 -0.512234,0.241565 -0.381265,0 -0.651934,-0.267759 -0.651934,-0.651934 0,-0.384176 0.270669,-0.651934 0.651934,-0.651934 0.20373,0 0.375444,0.08149 0.512234,0.238654 l 0.302684,-0.2794 c -0.192088,-0.232834 -0.48604,-0.360892 -0.838201,-0.360892 -0.634472,0 -1.10596,0.439473 -1.10596,1.053572 0,0.614098 0.471488,1.053572 1.10305,1.053572 z m 1.789915,-0.01164 c 0.497682,0 0.858574,-0.334698 0.858574,-0.806186 0,-0.471488 -0.360892,-0.806187 -0.858574,-0.806187 -0.497682,0 -0.861484,0.334699 -0.861484,0.806187 0,0.471488 0.363802,0.806186 0.861484,0.806186 z m 0,-0.372534 c -0.227013,0 -0.401638,-0.162983 -0.401638,-0.433652 0,-0.270669 0.174625,-0.433653 0.401638,-0.433653 0.227013,0 0.398727,0.162984 0.398727,0.433653 0,0.270669 -0.171714,0.433652 -0.398727,0.433652 z m 1.161259,0.349251 h 0.454025 v -0.774172 c 0,-0.288132 0.157163,-0.422011 0.375444,-0.422011 0.200819,0 0.317236,0.116417 0.317236,0.369623 v 0.82656 h 0.454026 v -0.89641 c 0,-0.477309 -0.279401,-0.69268 -0.649024,-0.69268 -0.212461,0 -0.395817,0.07276 -0.518055,0.209551 v -0.186267 h -0.433652 z m 2.651393,0.02328 c 0.1397,0 0.27649,-0.03201 0.369623,-0.09895 l -0.122237,-0.320146 c -0.04948,0.03784 -0.116417,0.05821 -0.183357,0.05821 -0.122238,0 -0.194998,-0.07276 -0.194998,-0.20664 v -0.672307 h 0.389996 v -0.34925 h -0.389996 v -0.34634 h -0.454026 v 0.34634 h -0.241564 v 0.34925 h 0.241564 v 0.678128 c 0,0.372534 0.215372,0.561711 0.584995,0.561711 z m 0.625737,-0.02328 h 0.454025 v -0.739247 c 0,-0.299773 0.165894,-0.436563 0.41619,-0.436563 0.03493,0 0.06403,0.0029 0.101865,0.0058 v -0.419101 c -0.241565,0 -0.427832,0.07858 -0.538428,0.229924 v -0.20664 h -0.433652 z m 1.973263,0.02328 c 0.497681,0 0.858573,-0.334698 0.858573,-0.806186 0,-0.471488 -0.360892,-0.806187 -0.858573,-0.806187 -0.497682,0 -0.861485,0.334699 -0.861485,0.806187 0,0.471488 0.363803,0.806186 0.861485,0.806186 z m 0,-0.372534 c -0.227013,0 -0.401638,-0.162983 -0.401638,-0.433652 0,-0.270669 0.174625,-0.433653 0.401638,-0.433653 0.227012,0 0.398727,0.162984 0.398727,0.433653 0,0.270669 -0.171715,0.433652 -0.398727,0.433652 z m 1.161258,0.349251 h 0.454026 v -2.159532 h -0.454026 z m 2.371999,0.02328 c 0.20955,0 0.375444,-0.06694 0.488951,-0.203729 v 0.180446 h 0.433652 v -2.159532 h -0.454025 v 0.75962 c -0.116417,-0.128059 -0.27649,-0.189178 -0.468578,-0.189178 -0.442384,0 -0.782903,0.314326 -0.782903,0.806187 0,0.491861 0.340519,0.806186 0.782903,0.806186 z m 0.07858,-0.372534 c -0.227012,0 -0.401638,-0.162983 -0.401638,-0.433652 0,-0.270669 0.174626,-0.433653 0.401638,-0.433653 0.224103,0 0.398728,0.162984 0.398728,0.433653 0,0.270669 -0.174625,0.433652 -0.398728,0.433652 z m 2.040202,0.372534 c 0.282311,0 0.500592,-0.08731 0.646113,-0.253207 l -0.241565,-0.261937 c -0.107685,0.101864 -0.227013,0.151342 -0.392907,0.151342 -0.238654,0 -0.404548,-0.119328 -0.448204,-0.314326 h 1.184541 c 0.0029,-0.03783 0.0087,-0.08731 0.0087,-0.122237 0,-0.503503 -0.355071,-0.812008 -0.814918,-0.812008 -0.477308,0 -0.83529,0.337609 -0.83529,0.806187 0,0.465667 0.352161,0.806186 0.893499,0.806186 z m -0.439474,-0.942976 c 0.03202,-0.197909 0.177536,-0.325967 0.384176,-0.325967 0.203729,0 0.352161,0.128058 0.384175,0.325967 z"
         id="path1" />
      <path
         style="font-weight:bold;-inkscape-font-specification:'Montserrat Bold';text-align:start;text-anchor:start;fill:#bc955c"
         d="m 0.16007362,19.26681 h 0.44238383 v -1.199093 l 0.59663605,0.983722 h 0.2124607 l 0.5995465,-1.004095 0.00291,1.219466 h 0.4423838 l -0.00582,-2.037294 H 2.0634883 L 1.3125999,18.495548 0.55006989,17.229516 H 0.16007362 Z m 3.70787488,0 h 0.4249213 v -0.893499 c 0,-0.474399 -0.2764899,-0.695591 -0.7537988,-0.695591 -0.2502961,0 -0.5035026,0.06694 -0.6752174,0.189178 l 0.1629835,0.317235 c 0.1135064,-0.09022 0.2852212,-0.145521 0.4511151,-0.145521 0.2444753,0 0.3608921,0.113507 0.3608921,0.308505 H 3.4779522 c -0.4773089,0 -0.672307,0.192088 -0.672307,0.468578 0,0.270669 0.2182815,0.474398 0.5849944,0.474398 0.2299232,0 0.3899963,-0.07567 0.4773089,-0.215371 z m -0.029104,-0.494772 c -0.052388,0.142611 -0.1833565,0.212461 -0.3346983,0.212461 -0.1600731,0 -0.256117,-0.07567 -0.256117,-0.189177 0,-0.104775 0.06694,-0.183357 0.2794003,-0.183357 h 0.311415 z M 4.703241,19.26681 h 0.4540255 v -0.774172 c 0,-0.288132 0.1571626,-0.422011 0.3754441,-0.422011 0.200819,0 0.3172358,0.116417 0.3172358,0.369623 v 0.82656 H 6.3039719 V 18.3704 c 0,-0.477309 -0.2794003,-0.69268 -0.6490236,-0.69268 -0.2124607,0 -0.3958171,0.07276 -0.5180548,0.209551 V 17.701004 H 4.703241 Z m 2.6513922,0.02328 c 0.1397001,0 0.2764899,-0.03201 0.3696233,-0.09895 L 7.6020189,18.870993 c -0.049477,0.03784 -0.1164168,0.05821 -0.1833565,0.05821 -0.1222376,0 -0.1949981,-0.07276 -0.1949981,-0.20664 v -0.672307 h 0.3899962 v -0.34925 H 7.2236643 v -0.34634 H 6.7696388 v 0.34634 H 6.5280739 v 0.34925 h 0.2415649 v 0.678128 c 0,0.372534 0.215371,0.561711 0.5849944,0.561711 z m 1.3533434,0 c 0.2823107,0 0.5005922,-0.08731 0.6461132,-0.253206 L 9.112525,18.774949 c -0.1076856,0.101864 -0.2270128,0.151342 -0.3929067,0.151342 -0.2386545,0 -0.4045484,-0.119328 -0.4482047,-0.314326 h 1.1845409 c 0.00291,-0.03784 0.00873,-0.08731 0.00873,-0.122237 0,-0.503503 -0.3550713,-0.812008 -0.8149176,-0.812008 -0.4773089,0 -0.8352905,0.337609 -0.8352905,0.806187 0,0.465667 0.3521608,0.806186 0.8934989,0.806186 z M 8.2685032,18.347117 c 0.032015,-0.197909 0.1775356,-0.325967 0.3841754,-0.325967 0.2037294,0 0.3521608,0.128058 0.3841754,0.325967 z m 1.4988676,0.919693 h 0.4540252 v -0.774172 c 0,-0.288132 0.157163,-0.422011 0.375444,-0.422011 0.200819,0 0.317236,0.116417 0.317236,0.369623 v 0.82656 h 0.454026 V 18.3704 c 0,-0.477309 -0.279401,-0.69268 -0.649024,-0.69268 -0.212461,0 -0.395817,0.07276 -0.518055,0.209551 V 17.701004 H 9.7673708 Z m 2.0111002,0 h 0.454025 v -1.565806 h -0.454025 z m 0.227012,-1.784088 c 0.171715,0 0.285222,-0.110596 0.285222,-0.261938 0,-0.1397 -0.116417,-0.244475 -0.285222,-0.244475 -0.165894,0 -0.28231,0.110596 -0.28231,0.253207 0,0.14261 0.116416,0.253206 0.28231,0.253206 z m 0.649026,1.784088 h 0.454026 v -0.785814 c 0,-0.2794 0.14261,-0.410369 0.343429,-0.410369 0.189178,0 0.296863,0.116417 0.296863,0.369623 v 0.82656 h 0.454026 v -0.785814 c 0,-0.2794 0.14261,-0.410369 0.34634,-0.410369 0.183356,0 0.296862,0.116417 0.296862,0.369623 v 0.82656 h 0.454026 V 18.3704 c 0,-0.477309 -0.267759,-0.69268 -0.640293,-0.69268 -0.235744,0 -0.439473,0.09604 -0.564621,0.256117 -0.107686,-0.171714 -0.296863,-0.256117 -0.515144,-0.256117 -0.200819,0 -0.375444,0.06985 -0.491861,0.20373 v -0.180446 h -0.433653 z m 3.05303,0 h 0.454026 v -1.565806 h -0.454026 z m 0.227013,-1.784088 c 0.171715,0 0.285221,-0.110596 0.285221,-0.261938 0,-0.1397 -0.116417,-0.244475 -0.285221,-0.244475 -0.165894,0 -0.282311,0.110596 -0.282311,0.253207 0,0.14261 0.116417,0.253206 0.282311,0.253206 z m 1.426108,1.807371 c 0.282311,0 0.500592,-0.08731 0.646113,-0.253206 l -0.241565,-0.261938 c -0.107685,0.101864 -0.227013,0.151342 -0.392906,0.151342 -0.238655,0 -0.404549,-0.119328 -0.448205,-0.314326 h 1.184541 c 0.0029,-0.03784 0.0087,-0.08731 0.0087,-0.122237 0,-0.503503 -0.355071,-0.812008 -0.814918,-0.812008 -0.477308,0 -0.83529,0.337609 -0.83529,0.806187 0,0.465667 0.352161,0.806186 0.893499,0.806186 z m -0.439474,-0.942976 c 0.03202,-0.197909 0.177536,-0.325967 0.384176,-0.325967 0.203729,0 0.352161,0.128058 0.384175,0.325967 z m 1.498867,0.919693 h 0.454026 v -0.774172 c 0,-0.288132 0.157162,-0.422011 0.375444,-0.422011 0.200819,0 0.317236,0.116417 0.317236,0.369623 v 0.82656 h 0.454025 V 18.3704 c 0,-0.477309 -0.2794,-0.69268 -0.649024,-0.69268 -0.21246,0 -0.395817,0.07276 -0.518054,0.209551 v -0.186267 h -0.433653 z m 2.651393,0.02328 c 0.1397,0 0.27649,-0.03201 0.369624,-0.09895 l -0.122238,-0.320146 c -0.04948,0.03784 -0.116417,0.05821 -0.183357,0.05821 -0.122237,0 -0.194998,-0.07276 -0.194998,-0.20664 v -0.672307 h 0.389997 v -0.34925 h -0.389997 v -0.34634 h -0.454025 v 0.34634 h -0.241565 v 0.34925 h 0.241565 v 0.678128 c 0,0.372534 0.215371,0.561711 0.584994,0.561711 z m 1.321328,0 c 0.497682,0 0.858574,-0.334698 0.858574,-0.806186 0,-0.471488 -0.360892,-0.806187 -0.858574,-0.806187 -0.497682,0 -0.861484,0.334699 -0.861484,0.806187 0,0.471488 0.363802,0.806186 0.861484,0.806186 z m 0,-0.372534 c -0.227013,0 -0.401638,-0.162983 -0.401638,-0.433652 0,-0.270669 0.174625,-0.433653 0.401638,-0.433653 0.227013,0 0.398728,0.162984 0.398728,0.433653 0,0.270669 -0.171715,0.433652 -0.398728,0.433652 z m 2.657218,0.372534 c 0.20955,0 0.375444,-0.06694 0.488951,-0.203729 v 0.180446 h 0.433652 V 17.107278 H 25.51857 v 0.75962 c -0.116417,-0.128059 -0.27649,-0.189178 -0.468578,-0.189178 -0.442384,0 -0.782903,0.314326 -0.782903,0.806187 0,0.491861 0.340519,0.806186 0.782903,0.806186 z m 0.07858,-0.372534 c -0.227013,0 -0.401638,-0.162983 -0.401638,-0.433652 0,-0.270669 0.174625,-0.433653 0.401638,-0.433653 0.224102,0 0.398727,0.162984 0.398727,0.433653 0,0.270669 -0.174625,0.433652 -0.398727,0.433652 z m 2.040203,0.372534 c 0.28231,0 0.500592,-0.08731 0.646113,-0.253206 l -0.241565,-0.261938 c -0.107685,0.101864 -0.227013,0.151342 -0.392907,0.151342 -0.238654,0 -0.404548,-0.119328 -0.448204,-0.314326 h 1.184541 c 0.0029,-0.03784 0.0087,-0.08731 0.0087,-0.122237 0,-0.503503 -0.355071,-0.812008 -0.814918,-0.812008 -0.477309,0 -0.83529,0.337609 -0.83529,0.806187 0,0.465667 0.352161,0.806186 0.893499,0.806186 z m -0.439474,-0.942976 c 0.03201,-0.197909 0.177536,-0.325967 0.384176,-0.325967 0.203729,0 0.352161,0.128058 0.384175,0.325967 z m 2.354534,0.919693 h 1.577447 v -0.378355 h -1.108869 v -0.471488 h 0.945886 V 18.050254 H 29.552415 V 17.60787 h 1.071034 v -0.378354 h -1.539612 z m 2.575721,0.02328 c 0.192088,0 0.352161,-0.06112 0.468578,-0.189177 v 0.730515 h 0.454025 v -2.130427 h -0.433652 v 0.180446 c -0.113507,-0.13679 -0.2794,-0.20373 -0.488951,-0.20373 -0.442384,0 -0.782903,0.314326 -0.782903,0.806187 0,0.491861 0.340519,0.806186 0.782903,0.806186 z m 0.07858,-0.372534 c -0.227013,0 -0.401638,-0.162983 -0.401638,-0.433652 0,-0.270669 0.174625,-0.433653 0.401638,-0.433653 0.224102,0 0.398727,0.162984 0.398727,0.433653 0,0.270669 -0.174625,0.433652 -0.398727,0.433652 z m 1.923788,0.372534 c 0.189177,0 0.366713,-0.06985 0.48604,-0.20664 v 0.183357 h 0.430742 v -1.565806 h -0.454026 v 0.774171 c 0,0.288132 -0.151341,0.422011 -0.360892,0.422011 -0.200819,0 -0.317235,-0.116416 -0.317235,-0.378354 v -0.817828 h -0.454026 v 0.884767 c 0,0.48313 0.27649,0.704322 0.669397,0.704322 z m 1.338796,-0.02328 h 0.454026 v -1.565806 h -0.454026 z m 0.227013,-1.784088 c 0.171715,0 0.285221,-0.110596 0.285221,-0.261938 0,-0.1397 -0.116416,-0.244475 -0.285221,-0.244475 -0.165894,0 -0.282311,0.110596 -0.282311,0.253207 0,0.14261 0.116417,0.253206 0.282311,0.253206 z m 1.574539,1.807371 c 0.439473,0 0.779992,-0.314325 0.779992,-0.806186 0,-0.491861 -0.340519,-0.806187 -0.779992,-0.806187 -0.209551,0 -0.378355,0.06694 -0.491861,0.20373 v -0.180446 h -0.433653 v 2.130427 h 0.454026 v -0.730515 c 0.116416,0.128058 0.276489,0.189177 0.471488,0.189177 z m -0.07858,-0.372534 c -0.227013,0 -0.398727,-0.162983 -0.398727,-0.433652 0,-0.270669 0.171714,-0.433653 0.398727,-0.433653 0.227013,0 0.398728,0.162984 0.398728,0.433653 0,0.270669 -0.171715,0.433652 -0.398728,0.433652 z m 1.906326,0.372534 c 0.497681,0 0.858574,-0.334698 0.858574,-0.806186 0,-0.471488 -0.360893,-0.806187 -0.858574,-0.806187 -0.497682,0 -0.861485,0.334699 -0.861485,0.806187 0,0.471488 0.363803,0.806186 0.861485,0.806186 z m 0,-0.372534 c -0.227013,0 -0.401638,-0.162983 -0.401638,-0.433652 0,-0.270669 0.174625,-0.433653 0.401638,-0.433653 0.227012,0 0.398727,0.162984 0.398727,0.433653 0,0.270669 -0.171715,0.433652 -0.398727,0.433652 z"
         id="path2" />
    </g>
    <path
       style="fill:#bc955c;fill-opacity:1;stroke-width:1.46368;stroke-linejoin:round"
       d="m 0,12.23516 h 53.170323 l 5.12849,-8.88281 5.08456,11.47137 L 69.507143,0 l 5.42382,12.23516 h 4.55852 v 0.77062 l -5.05994,-4e-5 -4.89789,-11.04612 -6.12366,14.82906 -5.19837,-11.74062 -4.59437,7.95768 H 0 Z"
       id="path6"
       sodipodi:nodetypes="ccccccccccccccc" />
  </g>
</svg>
